<mxfile host="Electron" agent="Mozilla/5.0 (Windows NT 10.0; Win64; x64) AppleWebKit/537.36 (KHTML, like Gecko) draw.io/24.7.8 Chrome/128.0.6613.36 Electron/32.0.1 Safari/537.36" version="24.7.8">
  <diagram name="Page-1" id="LWIG0JtRVgYwruzP3t7o">
    <mxGraphModel dx="2368" dy="1887" grid="1" gridSize="10" guides="1" tooltips="1" connect="1" arrows="1" fold="1" page="1" pageScale="1" pageWidth="850" pageHeight="1100" math="0" shadow="0">
      <root>
        <mxCell id="0" />
        <mxCell id="1" parent="0" />
        <mxCell id="OUo_SwmsONpGM5Bt-4AJ-7" style="edgeStyle=orthogonalEdgeStyle;rounded=0;orthogonalLoop=1;jettySize=auto;html=1;exitX=0.5;exitY=0;exitDx=0;exitDy=0;entryX=0.5;entryY=1;entryDx=0;entryDy=0;" edge="1" parent="1" source="OUo_SwmsONpGM5Bt-4AJ-1" target="OUo_SwmsONpGM5Bt-4AJ-5">
          <mxGeometry relative="1" as="geometry" />
        </mxCell>
        <mxCell id="OUo_SwmsONpGM5Bt-4AJ-9" style="edgeStyle=orthogonalEdgeStyle;rounded=0;orthogonalLoop=1;jettySize=auto;html=1;exitX=0.5;exitY=0;exitDx=0;exitDy=0;entryX=0.5;entryY=1;entryDx=0;entryDy=0;" edge="1" parent="1" source="OUo_SwmsONpGM5Bt-4AJ-1" target="OUo_SwmsONpGM5Bt-4AJ-4">
          <mxGeometry relative="1" as="geometry" />
        </mxCell>
        <mxCell id="OUo_SwmsONpGM5Bt-4AJ-38" style="edgeStyle=orthogonalEdgeStyle;rounded=0;orthogonalLoop=1;jettySize=auto;html=1;exitX=0.5;exitY=0;exitDx=0;exitDy=0;entryX=0.5;entryY=1;entryDx=0;entryDy=0;" edge="1" parent="1" source="OUo_SwmsONpGM5Bt-4AJ-1" target="OUo_SwmsONpGM5Bt-4AJ-15">
          <mxGeometry relative="1" as="geometry" />
        </mxCell>
        <mxCell id="OUo_SwmsONpGM5Bt-4AJ-1" value="Student" style="whiteSpace=wrap;html=1;align=center;" vertex="1" parent="1">
          <mxGeometry x="30" y="120" width="100" height="40" as="geometry" />
        </mxCell>
        <mxCell id="OUo_SwmsONpGM5Bt-4AJ-3" value="St_Address" style="ellipse;whiteSpace=wrap;html=1;align=center;" vertex="1" parent="1">
          <mxGeometry x="90" y="40" width="100" height="40" as="geometry" />
        </mxCell>
        <mxCell id="OUo_SwmsONpGM5Bt-4AJ-4" value="St_Age" style="ellipse;whiteSpace=wrap;html=1;align=center;dashed=1;" vertex="1" parent="1">
          <mxGeometry x="200" y="40" width="100" height="40" as="geometry" />
        </mxCell>
        <mxCell id="OUo_SwmsONpGM5Bt-4AJ-41" style="edgeStyle=orthogonalEdgeStyle;rounded=0;orthogonalLoop=1;jettySize=auto;html=1;exitX=0.5;exitY=0;exitDx=0;exitDy=0;entryX=0.5;entryY=1;entryDx=0;entryDy=0;" edge="1" parent="1" source="OUo_SwmsONpGM5Bt-4AJ-5" target="OUo_SwmsONpGM5Bt-4AJ-40">
          <mxGeometry relative="1" as="geometry" />
        </mxCell>
        <mxCell id="OUo_SwmsONpGM5Bt-4AJ-42" style="edgeStyle=orthogonalEdgeStyle;rounded=0;orthogonalLoop=1;jettySize=auto;html=1;exitX=0.5;exitY=0;exitDx=0;exitDy=0;entryX=0.5;entryY=1;entryDx=0;entryDy=0;" edge="1" parent="1" source="OUo_SwmsONpGM5Bt-4AJ-5" target="OUo_SwmsONpGM5Bt-4AJ-39">
          <mxGeometry relative="1" as="geometry" />
        </mxCell>
        <mxCell id="OUo_SwmsONpGM5Bt-4AJ-5" value="St_Name" style="ellipse;whiteSpace=wrap;html=1;align=center;" vertex="1" parent="1">
          <mxGeometry x="-20" y="40" width="100" height="40" as="geometry" />
        </mxCell>
        <mxCell id="OUo_SwmsONpGM5Bt-4AJ-8" style="edgeStyle=orthogonalEdgeStyle;rounded=0;orthogonalLoop=1;jettySize=auto;html=1;exitX=0.5;exitY=0;exitDx=0;exitDy=0;entryX=0.572;entryY=1.07;entryDx=0;entryDy=0;entryPerimeter=0;" edge="1" parent="1" source="OUo_SwmsONpGM5Bt-4AJ-1" target="OUo_SwmsONpGM5Bt-4AJ-3">
          <mxGeometry relative="1" as="geometry" />
        </mxCell>
        <mxCell id="OUo_SwmsONpGM5Bt-4AJ-17" style="edgeStyle=orthogonalEdgeStyle;rounded=0;orthogonalLoop=1;jettySize=auto;html=1;exitX=0.5;exitY=1;exitDx=0;exitDy=0;entryX=0.5;entryY=0;entryDx=0;entryDy=0;" edge="1" parent="1" source="OUo_SwmsONpGM5Bt-4AJ-11" target="OUo_SwmsONpGM5Bt-4AJ-12">
          <mxGeometry relative="1" as="geometry" />
        </mxCell>
        <mxCell id="OUo_SwmsONpGM5Bt-4AJ-44" style="edgeStyle=orthogonalEdgeStyle;rounded=0;orthogonalLoop=1;jettySize=auto;html=1;exitX=0.5;exitY=1;exitDx=0;exitDy=0;entryX=0.5;entryY=0;entryDx=0;entryDy=0;" edge="1" parent="1" source="OUo_SwmsONpGM5Bt-4AJ-11" target="OUo_SwmsONpGM5Bt-4AJ-14">
          <mxGeometry relative="1" as="geometry" />
        </mxCell>
        <mxCell id="OUo_SwmsONpGM5Bt-4AJ-11" value="Department" style="whiteSpace=wrap;html=1;align=center;" vertex="1" parent="1">
          <mxGeometry x="30" y="610" width="100" height="40" as="geometry" />
        </mxCell>
        <mxCell id="OUo_SwmsONpGM5Bt-4AJ-12" value="Dept_Name" style="ellipse;whiteSpace=wrap;html=1;align=center;" vertex="1" parent="1">
          <mxGeometry x="120" y="690" width="100" height="40" as="geometry" />
        </mxCell>
        <mxCell id="OUo_SwmsONpGM5Bt-4AJ-14" value="&lt;div&gt;Dept_Id&lt;/div&gt;" style="ellipse;whiteSpace=wrap;html=1;align=center;fontStyle=4;" vertex="1" parent="1">
          <mxGeometry x="-40" y="690" width="100" height="40" as="geometry" />
        </mxCell>
        <mxCell id="OUo_SwmsONpGM5Bt-4AJ-15" value="St_Id" style="ellipse;whiteSpace=wrap;html=1;align=center;fontStyle=4;" vertex="1" parent="1">
          <mxGeometry x="-130" y="40" width="100" height="40" as="geometry" />
        </mxCell>
        <mxCell id="OUo_SwmsONpGM5Bt-4AJ-24" style="edgeStyle=orthogonalEdgeStyle;rounded=0;orthogonalLoop=1;jettySize=auto;html=1;exitX=0.5;exitY=0;exitDx=0;exitDy=0;entryX=0.5;entryY=1;entryDx=0;entryDy=0;" edge="1" parent="1" source="OUo_SwmsONpGM5Bt-4AJ-18" target="OUo_SwmsONpGM5Bt-4AJ-23">
          <mxGeometry relative="1" as="geometry" />
        </mxCell>
        <mxCell id="OUo_SwmsONpGM5Bt-4AJ-28" style="edgeStyle=orthogonalEdgeStyle;rounded=0;orthogonalLoop=1;jettySize=auto;html=1;exitX=0.5;exitY=0;exitDx=0;exitDy=0;entryX=0.5;entryY=1;entryDx=0;entryDy=0;" edge="1" parent="1" source="OUo_SwmsONpGM5Bt-4AJ-18" target="OUo_SwmsONpGM5Bt-4AJ-20">
          <mxGeometry relative="1" as="geometry" />
        </mxCell>
        <mxCell id="OUo_SwmsONpGM5Bt-4AJ-29" style="edgeStyle=orthogonalEdgeStyle;rounded=0;orthogonalLoop=1;jettySize=auto;html=1;exitX=0.5;exitY=0;exitDx=0;exitDy=0;entryX=0.5;entryY=1;entryDx=0;entryDy=0;" edge="1" parent="1" source="OUo_SwmsONpGM5Bt-4AJ-18" target="OUo_SwmsONpGM5Bt-4AJ-21">
          <mxGeometry relative="1" as="geometry" />
        </mxCell>
        <mxCell id="OUo_SwmsONpGM5Bt-4AJ-18" value="Course" style="whiteSpace=wrap;html=1;align=center;" vertex="1" parent="1">
          <mxGeometry x="640" y="120" width="100" height="40" as="geometry" />
        </mxCell>
        <mxCell id="OUo_SwmsONpGM5Bt-4AJ-20" value="Crs_Name" style="ellipse;whiteSpace=wrap;html=1;align=center;" vertex="1" parent="1">
          <mxGeometry x="550" y="40" width="100" height="40" as="geometry" />
        </mxCell>
        <mxCell id="OUo_SwmsONpGM5Bt-4AJ-21" value="Crs_Duration" style="ellipse;whiteSpace=wrap;html=1;align=center;" vertex="1" parent="1">
          <mxGeometry x="660" y="40" width="100" height="40" as="geometry" />
        </mxCell>
        <mxCell id="OUo_SwmsONpGM5Bt-4AJ-22" value="Crs_Description" style="ellipse;whiteSpace=wrap;html=1;align=center;" vertex="1" parent="1">
          <mxGeometry x="770" y="40" width="100" height="40" as="geometry" />
        </mxCell>
        <mxCell id="OUo_SwmsONpGM5Bt-4AJ-23" value="Crs_Id" style="ellipse;whiteSpace=wrap;html=1;align=center;fontStyle=4;" vertex="1" parent="1">
          <mxGeometry x="440" y="40" width="100" height="40" as="geometry" />
        </mxCell>
        <mxCell id="OUo_SwmsONpGM5Bt-4AJ-30" style="edgeStyle=orthogonalEdgeStyle;rounded=0;orthogonalLoop=1;jettySize=auto;html=1;exitX=0.5;exitY=0;exitDx=0;exitDy=0;entryX=0.584;entryY=1.06;entryDx=0;entryDy=0;entryPerimeter=0;" edge="1" parent="1" source="OUo_SwmsONpGM5Bt-4AJ-18" target="OUo_SwmsONpGM5Bt-4AJ-22">
          <mxGeometry relative="1" as="geometry" />
        </mxCell>
        <mxCell id="OUo_SwmsONpGM5Bt-4AJ-36" style="edgeStyle=orthogonalEdgeStyle;rounded=0;orthogonalLoop=1;jettySize=auto;html=1;exitX=0.5;exitY=0;exitDx=0;exitDy=0;entryX=0.5;entryY=1;entryDx=0;entryDy=0;" edge="1" parent="1" source="OUo_SwmsONpGM5Bt-4AJ-31" target="OUo_SwmsONpGM5Bt-4AJ-34">
          <mxGeometry relative="1" as="geometry" />
        </mxCell>
        <mxCell id="OUo_SwmsONpGM5Bt-4AJ-31" value="Student_Course" style="shape=rhombus;perimeter=rhombusPerimeter;whiteSpace=wrap;html=1;align=center;" vertex="1" parent="1">
          <mxGeometry x="300" y="110" width="120" height="60" as="geometry" />
        </mxCell>
        <mxCell id="OUo_SwmsONpGM5Bt-4AJ-32" value="" style="endArrow=none;html=1;rounded=0;exitX=1;exitY=0.5;exitDx=0;exitDy=0;entryX=0;entryY=0.5;entryDx=0;entryDy=0;" edge="1" parent="1" source="OUo_SwmsONpGM5Bt-4AJ-31" target="OUo_SwmsONpGM5Bt-4AJ-18">
          <mxGeometry width="50" height="50" relative="1" as="geometry">
            <mxPoint x="560" y="380" as="sourcePoint" />
            <mxPoint x="610" y="330" as="targetPoint" />
          </mxGeometry>
        </mxCell>
        <mxCell id="OUo_SwmsONpGM5Bt-4AJ-33" value="" style="endArrow=none;html=1;rounded=0;exitX=1;exitY=0.5;exitDx=0;exitDy=0;entryX=0;entryY=0.5;entryDx=0;entryDy=0;" edge="1" parent="1" source="OUo_SwmsONpGM5Bt-4AJ-1" target="OUo_SwmsONpGM5Bt-4AJ-31">
          <mxGeometry width="50" height="50" relative="1" as="geometry">
            <mxPoint x="70" y="160" as="sourcePoint" />
            <mxPoint x="220" y="320" as="targetPoint" />
          </mxGeometry>
        </mxCell>
        <mxCell id="OUo_SwmsONpGM5Bt-4AJ-34" value="Grade" style="ellipse;whiteSpace=wrap;html=1;align=center;" vertex="1" parent="1">
          <mxGeometry x="310" y="-20" width="100" height="40" as="geometry" />
        </mxCell>
        <mxCell id="OUo_SwmsONpGM5Bt-4AJ-39" value="St_Lname" style="ellipse;whiteSpace=wrap;html=1;align=center;" vertex="1" parent="1">
          <mxGeometry x="50" y="-30" width="100" height="40" as="geometry" />
        </mxCell>
        <mxCell id="OUo_SwmsONpGM5Bt-4AJ-40" value="St_Fname" style="ellipse;whiteSpace=wrap;html=1;align=center;" vertex="1" parent="1">
          <mxGeometry x="-80" y="-30" width="100" height="40" as="geometry" />
        </mxCell>
        <mxCell id="OUo_SwmsONpGM5Bt-4AJ-52" style="edgeStyle=orthogonalEdgeStyle;rounded=0;orthogonalLoop=1;jettySize=auto;html=1;exitX=0.5;exitY=1;exitDx=0;exitDy=0;" edge="1" parent="1" source="OUo_SwmsONpGM5Bt-4AJ-43" target="OUo_SwmsONpGM5Bt-4AJ-46">
          <mxGeometry relative="1" as="geometry" />
        </mxCell>
        <mxCell id="OUo_SwmsONpGM5Bt-4AJ-53" style="edgeStyle=orthogonalEdgeStyle;rounded=0;orthogonalLoop=1;jettySize=auto;html=1;exitX=0.5;exitY=1;exitDx=0;exitDy=0;entryX=0.5;entryY=0;entryDx=0;entryDy=0;" edge="1" parent="1" source="OUo_SwmsONpGM5Bt-4AJ-43" target="OUo_SwmsONpGM5Bt-4AJ-47">
          <mxGeometry relative="1" as="geometry" />
        </mxCell>
        <mxCell id="OUo_SwmsONpGM5Bt-4AJ-54" style="edgeStyle=orthogonalEdgeStyle;rounded=0;orthogonalLoop=1;jettySize=auto;html=1;exitX=0.5;exitY=1;exitDx=0;exitDy=0;entryX=0.5;entryY=0;entryDx=0;entryDy=0;" edge="1" parent="1" source="OUo_SwmsONpGM5Bt-4AJ-43" target="OUo_SwmsONpGM5Bt-4AJ-50">
          <mxGeometry relative="1" as="geometry" />
        </mxCell>
        <mxCell id="OUo_SwmsONpGM5Bt-4AJ-55" style="edgeStyle=orthogonalEdgeStyle;rounded=0;orthogonalLoop=1;jettySize=auto;html=1;exitX=0.5;exitY=1;exitDx=0;exitDy=0;entryX=0.5;entryY=0;entryDx=0;entryDy=0;" edge="1" parent="1" source="OUo_SwmsONpGM5Bt-4AJ-43" target="OUo_SwmsONpGM5Bt-4AJ-48">
          <mxGeometry relative="1" as="geometry" />
        </mxCell>
        <mxCell id="OUo_SwmsONpGM5Bt-4AJ-56" style="edgeStyle=orthogonalEdgeStyle;rounded=0;orthogonalLoop=1;jettySize=auto;html=1;exitX=0.5;exitY=1;exitDx=0;exitDy=0;" edge="1" parent="1" source="OUo_SwmsONpGM5Bt-4AJ-43" target="OUo_SwmsONpGM5Bt-4AJ-49">
          <mxGeometry relative="1" as="geometry" />
        </mxCell>
        <mxCell id="OUo_SwmsONpGM5Bt-4AJ-57" style="edgeStyle=orthogonalEdgeStyle;rounded=0;orthogonalLoop=1;jettySize=auto;html=1;exitX=0.5;exitY=1;exitDx=0;exitDy=0;entryX=0.5;entryY=0;entryDx=0;entryDy=0;" edge="1" parent="1" source="OUo_SwmsONpGM5Bt-4AJ-43" target="OUo_SwmsONpGM5Bt-4AJ-51">
          <mxGeometry relative="1" as="geometry" />
        </mxCell>
        <mxCell id="OUo_SwmsONpGM5Bt-4AJ-43" value="Instructor" style="whiteSpace=wrap;html=1;align=center;" vertex="1" parent="1">
          <mxGeometry x="640" y="610" width="100" height="40" as="geometry" />
        </mxCell>
        <mxCell id="OUo_SwmsONpGM5Bt-4AJ-46" value="&lt;div&gt;Ins_Id&lt;/div&gt;" style="ellipse;whiteSpace=wrap;html=1;align=center;fontStyle=4;" vertex="1" parent="1">
          <mxGeometry x="370" y="690" width="100" height="40" as="geometry" />
        </mxCell>
        <mxCell id="OUo_SwmsONpGM5Bt-4AJ-47" value="Ins_Nam&lt;span style=&quot;white-space: pre;&quot;&gt;&#x9;&lt;/span&gt;" style="ellipse;whiteSpace=wrap;html=1;align=center;" vertex="1" parent="1">
          <mxGeometry x="480" y="690" width="100" height="40" as="geometry" />
        </mxCell>
        <mxCell id="OUo_SwmsONpGM5Bt-4AJ-48" value="Ins_Salary" style="ellipse;whiteSpace=wrap;html=1;align=center;dashed=1;" vertex="1" parent="1">
          <mxGeometry x="730" y="690" width="100" height="40" as="geometry" />
        </mxCell>
        <mxCell id="OUo_SwmsONpGM5Bt-4AJ-49" value="Ins_Bouns" style="ellipse;whiteSpace=wrap;html=1;align=center;dashed=1;" vertex="1" parent="1">
          <mxGeometry x="840" y="690" width="100" height="40" as="geometry" />
        </mxCell>
        <mxCell id="OUo_SwmsONpGM5Bt-4AJ-50" value="Ins_Address" style="ellipse;whiteSpace=wrap;html=1;align=center;dashed=1;" vertex="1" parent="1">
          <mxGeometry x="590" y="690" width="100" height="40" as="geometry" />
        </mxCell>
        <mxCell id="OUo_SwmsONpGM5Bt-4AJ-51" value="Ins_HourRate" style="ellipse;whiteSpace=wrap;html=1;align=center;" vertex="1" parent="1">
          <mxGeometry x="950" y="690" width="100" height="40" as="geometry" />
        </mxCell>
        <mxCell id="OUo_SwmsONpGM5Bt-4AJ-58" value="Works" style="shape=rhombus;perimeter=rhombusPerimeter;whiteSpace=wrap;html=1;align=center;" vertex="1" parent="1">
          <mxGeometry x="250" y="490" width="120" height="60" as="geometry" />
        </mxCell>
        <mxCell id="OUo_SwmsONpGM5Bt-4AJ-66" style="edgeStyle=orthogonalEdgeStyle;rounded=0;orthogonalLoop=1;jettySize=auto;html=1;exitX=0.5;exitY=1;exitDx=0;exitDy=0;entryX=0.5;entryY=0;entryDx=0;entryDy=0;" edge="1" parent="1" source="OUo_SwmsONpGM5Bt-4AJ-59" target="OUo_SwmsONpGM5Bt-4AJ-65">
          <mxGeometry relative="1" as="geometry" />
        </mxCell>
        <mxCell id="OUo_SwmsONpGM5Bt-4AJ-59" value="Manage" style="shape=rhombus;perimeter=rhombusPerimeter;whiteSpace=wrap;html=1;align=center;" vertex="1" parent="1">
          <mxGeometry x="250" y="570" width="120" height="60" as="geometry" />
        </mxCell>
        <mxCell id="OUo_SwmsONpGM5Bt-4AJ-60" value="" style="endArrow=none;html=1;rounded=0;exitX=1;exitY=0.5;exitDx=0;exitDy=0;entryX=0;entryY=0.25;entryDx=0;entryDy=0;" edge="1" parent="1" target="OUo_SwmsONpGM5Bt-4AJ-43">
          <mxGeometry width="50" height="50" relative="1" as="geometry">
            <mxPoint x="370" y="519.5" as="sourcePoint" />
            <mxPoint x="670" y="519.5" as="targetPoint" />
          </mxGeometry>
        </mxCell>
        <mxCell id="OUo_SwmsONpGM5Bt-4AJ-61" value="" style="endArrow=none;html=1;rounded=0;exitX=1;exitY=0.5;exitDx=0;exitDy=0;entryX=0;entryY=0.5;entryDx=0;entryDy=0;" edge="1" parent="1" target="OUo_SwmsONpGM5Bt-4AJ-58">
          <mxGeometry width="50" height="50" relative="1" as="geometry">
            <mxPoint x="70" y="610" as="sourcePoint" />
            <mxPoint x="370" y="610" as="targetPoint" />
          </mxGeometry>
        </mxCell>
        <mxCell id="OUo_SwmsONpGM5Bt-4AJ-62" value="" style="endArrow=none;html=1;rounded=0;exitX=1;exitY=0.5;exitDx=0;exitDy=0;entryX=0;entryY=0.5;entryDx=0;entryDy=0;" edge="1" parent="1" source="OUo_SwmsONpGM5Bt-4AJ-59" target="OUo_SwmsONpGM5Bt-4AJ-43">
          <mxGeometry width="50" height="50" relative="1" as="geometry">
            <mxPoint x="325" y="630" as="sourcePoint" />
            <mxPoint x="625" y="630" as="targetPoint" />
          </mxGeometry>
        </mxCell>
        <mxCell id="OUo_SwmsONpGM5Bt-4AJ-63" value="" style="endArrow=none;html=1;rounded=0;entryX=0;entryY=0.5;entryDx=0;entryDy=0;" edge="1" parent="1">
          <mxGeometry width="50" height="50" relative="1" as="geometry">
            <mxPoint x="100" y="610" as="sourcePoint" />
            <mxPoint x="250" y="599.5" as="targetPoint" />
          </mxGeometry>
        </mxCell>
        <mxCell id="OUo_SwmsONpGM5Bt-4AJ-65" value="HiringDate" style="ellipse;whiteSpace=wrap;html=1;align=center;" vertex="1" parent="1">
          <mxGeometry x="260" y="650" width="100" height="40" as="geometry" />
        </mxCell>
        <mxCell id="OUo_SwmsONpGM5Bt-4AJ-92" style="edgeStyle=orthogonalEdgeStyle;rounded=0;orthogonalLoop=1;jettySize=auto;html=1;exitX=1;exitY=0.5;exitDx=0;exitDy=0;entryX=0;entryY=0.5;entryDx=0;entryDy=0;" edge="1" parent="1" source="OUo_SwmsONpGM5Bt-4AJ-67" target="OUo_SwmsONpGM5Bt-4AJ-91">
          <mxGeometry relative="1" as="geometry" />
        </mxCell>
        <mxCell id="OUo_SwmsONpGM5Bt-4AJ-67" value="Teach" style="shape=rhombus;perimeter=rhombusPerimeter;whiteSpace=wrap;html=1;align=center;" vertex="1" parent="1">
          <mxGeometry x="630" y="330" width="120" height="60" as="geometry" />
        </mxCell>
        <mxCell id="OUo_SwmsONpGM5Bt-4AJ-68" value="" style="endArrow=none;html=1;rounded=0;exitX=0.5;exitY=1;exitDx=0;exitDy=0;entryX=0.5;entryY=0;entryDx=0;entryDy=0;" edge="1" parent="1" source="OUo_SwmsONpGM5Bt-4AJ-18" target="OUo_SwmsONpGM5Bt-4AJ-67">
          <mxGeometry width="50" height="50" relative="1" as="geometry">
            <mxPoint x="700" y="350" as="sourcePoint" />
            <mxPoint x="1000" y="350" as="targetPoint" />
          </mxGeometry>
        </mxCell>
        <mxCell id="OUo_SwmsONpGM5Bt-4AJ-69" value="" style="endArrow=none;html=1;rounded=0;exitX=0.5;exitY=1;exitDx=0;exitDy=0;entryX=0.5;entryY=0;entryDx=0;entryDy=0;" edge="1" parent="1" source="OUo_SwmsONpGM5Bt-4AJ-67" target="OUo_SwmsONpGM5Bt-4AJ-43">
          <mxGeometry width="50" height="50" relative="1" as="geometry">
            <mxPoint x="700" y="530" as="sourcePoint" />
            <mxPoint x="1000" y="530" as="targetPoint" />
          </mxGeometry>
        </mxCell>
        <mxCell id="OUo_SwmsONpGM5Bt-4AJ-77" style="edgeStyle=orthogonalEdgeStyle;rounded=0;orthogonalLoop=1;jettySize=auto;html=1;exitX=0.5;exitY=0;exitDx=0;exitDy=0;entryX=0.5;entryY=1;entryDx=0;entryDy=0;" edge="1" parent="1" source="OUo_SwmsONpGM5Bt-4AJ-70" target="OUo_SwmsONpGM5Bt-4AJ-72">
          <mxGeometry relative="1" as="geometry" />
        </mxCell>
        <mxCell id="OUo_SwmsONpGM5Bt-4AJ-78" style="edgeStyle=orthogonalEdgeStyle;rounded=0;orthogonalLoop=1;jettySize=auto;html=1;exitX=0.5;exitY=0;exitDx=0;exitDy=0;entryX=0.5;entryY=1;entryDx=0;entryDy=0;" edge="1" parent="1" source="OUo_SwmsONpGM5Bt-4AJ-70" target="OUo_SwmsONpGM5Bt-4AJ-71">
          <mxGeometry relative="1" as="geometry" />
        </mxCell>
        <mxCell id="OUo_SwmsONpGM5Bt-4AJ-70" value="Topic" style="whiteSpace=wrap;html=1;align=center;" vertex="1" parent="1">
          <mxGeometry x="310" y="300" width="100" height="40" as="geometry" />
        </mxCell>
        <mxCell id="OUo_SwmsONpGM5Bt-4AJ-71" value="TopId" style="ellipse;whiteSpace=wrap;html=1;align=center;fontStyle=4;" vertex="1" parent="1">
          <mxGeometry x="320" y="220" width="100" height="40" as="geometry" />
        </mxCell>
        <mxCell id="OUo_SwmsONpGM5Bt-4AJ-72" value="TopName" style="ellipse;whiteSpace=wrap;html=1;align=center;" vertex="1" parent="1">
          <mxGeometry x="210" y="220" width="100" height="40" as="geometry" />
        </mxCell>
        <mxCell id="OUo_SwmsONpGM5Bt-4AJ-75" value="Contain" style="shape=rhombus;perimeter=rhombusPerimeter;whiteSpace=wrap;html=1;align=center;" vertex="1" parent="1">
          <mxGeometry x="480" y="210" width="120" height="60" as="geometry" />
        </mxCell>
        <mxCell id="OUo_SwmsONpGM5Bt-4AJ-79" value="" style="endArrow=none;html=1;rounded=0;entryX=0.5;entryY=1;entryDx=0;entryDy=0;" edge="1" parent="1" target="OUo_SwmsONpGM5Bt-4AJ-75">
          <mxGeometry width="50" height="50" relative="1" as="geometry">
            <mxPoint x="410" y="320" as="sourcePoint" />
            <mxPoint x="460" y="270" as="targetPoint" />
          </mxGeometry>
        </mxCell>
        <mxCell id="OUo_SwmsONpGM5Bt-4AJ-80" value="" style="endArrow=none;html=1;rounded=0;entryX=0;entryY=1;entryDx=0;entryDy=0;entryPerimeter=0;" edge="1" parent="1" target="OUo_SwmsONpGM5Bt-4AJ-18">
          <mxGeometry width="50" height="50" relative="1" as="geometry">
            <mxPoint x="540" y="210" as="sourcePoint" />
            <mxPoint x="670" y="160" as="targetPoint" />
          </mxGeometry>
        </mxCell>
        <mxCell id="OUo_SwmsONpGM5Bt-4AJ-81" value="N" style="text;html=1;align=center;verticalAlign=middle;resizable=0;points=[];autosize=1;strokeColor=none;fillColor=none;" vertex="1" parent="1">
          <mxGeometry x="135" y="118" width="30" height="30" as="geometry" />
        </mxCell>
        <mxCell id="OUo_SwmsONpGM5Bt-4AJ-82" value="N" style="text;html=1;align=center;verticalAlign=middle;resizable=0;points=[];autosize=1;strokeColor=none;fillColor=none;" vertex="1" parent="1">
          <mxGeometry x="610" y="118" width="30" height="30" as="geometry" />
        </mxCell>
        <mxCell id="OUo_SwmsONpGM5Bt-4AJ-85" value="N" style="text;html=1;align=center;verticalAlign=middle;resizable=0;points=[];autosize=1;strokeColor=none;fillColor=none;" vertex="1" parent="1">
          <mxGeometry x="610" y="585" width="30" height="30" as="geometry" />
        </mxCell>
        <mxCell id="OUo_SwmsONpGM5Bt-4AJ-86" value="1" style="text;html=1;align=center;verticalAlign=middle;resizable=0;points=[];autosize=1;strokeColor=none;fillColor=none;" vertex="1" parent="1">
          <mxGeometry x="70" y="570" width="30" height="30" as="geometry" />
        </mxCell>
        <mxCell id="OUo_SwmsONpGM5Bt-4AJ-87" value="1" style="text;html=1;align=center;verticalAlign=middle;resizable=0;points=[];autosize=1;strokeColor=none;fillColor=none;" vertex="1" parent="1">
          <mxGeometry x="610" y="620" width="30" height="30" as="geometry" />
        </mxCell>
        <mxCell id="OUo_SwmsONpGM5Bt-4AJ-89" value="1" style="text;html=1;align=center;verticalAlign=middle;resizable=0;points=[];autosize=1;strokeColor=none;fillColor=none;" vertex="1" parent="1">
          <mxGeometry x="130" y="600" width="30" height="30" as="geometry" />
        </mxCell>
        <mxCell id="OUo_SwmsONpGM5Bt-4AJ-90" value="" style="endArrow=none;html=1;rounded=0;exitX=0.897;exitY=0.647;exitDx=0;exitDy=0;exitPerimeter=0;" edge="1" parent="1" source="OUo_SwmsONpGM5Bt-4AJ-59">
          <mxGeometry width="50" height="50" relative="1" as="geometry">
            <mxPoint x="590" y="690" as="sourcePoint" />
            <mxPoint x="640" y="640" as="targetPoint" />
          </mxGeometry>
        </mxCell>
        <mxCell id="OUo_SwmsONpGM5Bt-4AJ-91" value="Evaluation" style="ellipse;whiteSpace=wrap;html=1;align=center;" vertex="1" parent="1">
          <mxGeometry x="800" y="340" width="100" height="40" as="geometry" />
        </mxCell>
        <mxCell id="OUo_SwmsONpGM5Bt-4AJ-93" value="N" style="text;html=1;align=center;verticalAlign=middle;resizable=0;points=[];autosize=1;strokeColor=none;fillColor=none;" vertex="1" parent="1">
          <mxGeometry x="690" y="585" width="30" height="30" as="geometry" />
        </mxCell>
        <mxCell id="OUo_SwmsONpGM5Bt-4AJ-94" value="N" style="text;html=1;align=center;verticalAlign=middle;resizable=0;points=[];autosize=1;strokeColor=none;fillColor=none;" vertex="1" parent="1">
          <mxGeometry x="695" y="160" width="30" height="30" as="geometry" />
        </mxCell>
        <mxCell id="OUo_SwmsONpGM5Bt-4AJ-95" value="N" style="text;html=1;align=center;verticalAlign=middle;resizable=0;points=[];autosize=1;strokeColor=none;fillColor=none;" vertex="1" parent="1">
          <mxGeometry x="630" y="160" width="30" height="30" as="geometry" />
        </mxCell>
        <mxCell id="OUo_SwmsONpGM5Bt-4AJ-96" value="1" style="text;html=1;align=center;verticalAlign=middle;resizable=0;points=[];autosize=1;strokeColor=none;fillColor=none;" vertex="1" parent="1">
          <mxGeometry x="425" y="310" width="30" height="30" as="geometry" />
        </mxCell>
        <mxCell id="OUo_SwmsONpGM5Bt-4AJ-97" value="" style="endArrow=none;html=1;rounded=0;exitX=0.928;exitY=0.623;exitDx=0;exitDy=0;exitPerimeter=0;entryX=0.843;entryY=0.049;entryDx=0;entryDy=0;entryPerimeter=0;" edge="1" parent="1" source="OUo_SwmsONpGM5Bt-4AJ-58" target="OUo_SwmsONpGM5Bt-4AJ-87">
          <mxGeometry width="50" height="50" relative="1" as="geometry">
            <mxPoint x="575" y="665" as="sourcePoint" />
            <mxPoint x="625" y="615" as="targetPoint" />
          </mxGeometry>
        </mxCell>
        <mxCell id="OUo_SwmsONpGM5Bt-4AJ-98" value="" style="endArrow=none;html=1;rounded=0;exitX=0.588;exitY=0.097;exitDx=0;exitDy=0;exitPerimeter=0;" edge="1" parent="1" source="OUo_SwmsONpGM5Bt-4AJ-75">
          <mxGeometry width="50" height="50" relative="1" as="geometry">
            <mxPoint x="600" y="210" as="sourcePoint" />
            <mxPoint x="650" y="160" as="targetPoint" />
          </mxGeometry>
        </mxCell>
        <mxCell id="OUo_SwmsONpGM5Bt-4AJ-104" style="edgeStyle=orthogonalEdgeStyle;rounded=0;orthogonalLoop=1;jettySize=auto;html=1;exitX=0.5;exitY=1;exitDx=0;exitDy=0;" edge="1" parent="1" source="OUo_SwmsONpGM5Bt-4AJ-103" target="OUo_SwmsONpGM5Bt-4AJ-11">
          <mxGeometry relative="1" as="geometry" />
        </mxCell>
        <mxCell id="OUo_SwmsONpGM5Bt-4AJ-105" style="edgeStyle=orthogonalEdgeStyle;rounded=0;orthogonalLoop=1;jettySize=auto;html=1;entryX=0.5;entryY=1;entryDx=0;entryDy=0;" edge="1" parent="1" source="OUo_SwmsONpGM5Bt-4AJ-103" target="OUo_SwmsONpGM5Bt-4AJ-1">
          <mxGeometry relative="1" as="geometry" />
        </mxCell>
        <mxCell id="OUo_SwmsONpGM5Bt-4AJ-103" value="Have" style="shape=rhombus;perimeter=rhombusPerimeter;whiteSpace=wrap;html=1;align=center;" vertex="1" parent="1">
          <mxGeometry x="20" y="330" width="120" height="60" as="geometry" />
        </mxCell>
        <mxCell id="OUo_SwmsONpGM5Bt-4AJ-106" value="1" style="text;html=1;align=center;verticalAlign=middle;resizable=0;points=[];autosize=1;strokeColor=none;fillColor=none;" vertex="1" parent="1">
          <mxGeometry x="50" y="580" width="30" height="30" as="geometry" />
        </mxCell>
        <mxCell id="OUo_SwmsONpGM5Bt-4AJ-107" value="N" style="text;html=1;align=center;verticalAlign=middle;resizable=0;points=[];autosize=1;strokeColor=none;fillColor=none;" vertex="1" parent="1">
          <mxGeometry x="40" y="160" width="30" height="30" as="geometry" />
        </mxCell>
      </root>
    </mxGraphModel>
  </diagram>
</mxfile>
